<svg width="113" height="24" viewBox="0 0 113 24" fill="none" xmlns="http://www.w3.org/2000/svg">
<path d="M69.6608 17.5276C69.8145 18.1185 70.0853 18.6349 70.4544 19.1006C71.1593 19.9877 72.0955 20.4835 73.198 20.6831C74.44 20.908 75.6629 20.8589 76.8414 20.3742C77.8584 19.956 78.5997 19.2416 79.0702 18.242C79.1162 18.1438 79.2635 18.0551 79.3775 18.0345C80.5735 17.8128 81.7727 17.6068 82.9702 17.3962C83.0859 17.3756 83.2015 17.3597 83.4217 17.3249C83.1872 17.9696 83.0193 18.5731 82.7564 19.1291C81.5081 21.7603 79.4029 23.2889 76.5563 23.7942C74.1976 24.2124 71.8912 24.0255 69.7305 22.9198C67.3053 21.6795 65.9002 19.6487 65.3664 17.0112C64.9403 14.906 65.0908 12.8372 66 10.8698C67.2213 8.23069 69.3123 6.64503 72.1351 6.03833C74.2594 5.58212 76.3504 5.74052 78.332 6.67354C80.9664 7.91387 82.5029 10.0429 83.1318 12.8435C83.2807 13.5041 83.2981 14.1932 83.3757 14.8696C83.3995 15.0691 83.3599 15.1753 83.1128 15.2165C81.1755 15.5317 79.2413 15.8675 77.3056 16.197C75.289 16.5407 73.2725 16.8877 71.256 17.2314C70.7839 17.3122 70.3103 17.3898 69.8382 17.4706C69.786 17.4801 69.7368 17.5007 69.6624 17.5245L69.6608 17.5276ZM79.1336 12.7168C79.048 12.4396 78.9863 12.202 78.9007 11.9707C78.4287 10.6876 77.6208 9.71338 76.3108 9.2239C75.4395 8.89759 74.535 8.82313 73.6131 8.93402C72.3347 9.08767 71.2686 9.61834 70.4956 10.6749C69.8747 11.524 69.5848 12.4966 69.4375 13.5215C69.3994 13.7876 69.3979 14.0585 69.3757 14.3706C72.6468 13.8161 75.8593 13.2712 79.132 12.7168H79.1336Z" fill="#FF0A8C"/>
<path d="M103.385 23.9863C101.14 23.9783 99.0729 23.4081 97.2877 22.0046C95.5325 20.6233 94.4522 18.819 94.0578 16.6219C93.5683 13.8973 94.1496 11.4134 95.8588 9.22742C97.199 7.51345 98.989 6.49172 101.104 6.05135C103.142 5.62682 105.161 5.7377 107.128 6.46479C108.588 7.00496 109.83 7.86828 110.824 9.06743C111.188 9.5078 111.57 9.95451 111.826 10.4598C112.251 11.2946 112.574 12.177 112.747 13.1116C113.111 15.0964 112.896 17.0021 112.04 18.8317C110.996 21.0652 109.278 22.5622 106.974 23.4049C105.818 23.8278 104.616 23.9942 103.386 23.9894L103.385 23.9863ZM98.1098 15.1534C98.151 15.4275 98.1843 15.9582 98.3158 16.4603C98.7435 18.0982 99.6955 19.3243 101.286 19.9865C102.187 20.3619 103.133 20.4601 104.109 20.3429C105.519 20.175 106.688 19.573 107.545 18.4404C108.607 17.0337 108.901 15.4338 108.577 13.723C108.329 12.4003 107.701 11.282 106.616 10.4503C105.485 9.58225 104.185 9.32563 102.799 9.44919C101.714 9.54582 100.735 9.9355 99.9204 10.6768C98.6753 11.8079 98.151 13.2494 98.1098 15.1519V15.1534Z" fill="#FF0A8C"/>
<path d="M46.5234 6.93971C47.3408 6.80032 48.1202 6.66567 48.8996 6.53261C49.3811 6.45024 49.869 6.39638 50.3426 6.28391C50.6008 6.22371 50.68 6.314 50.7593 6.52785C52.0028 9.84174 53.2526 13.1525 54.5024 16.4632C54.7337 17.0762 54.965 17.6877 55.1962 18.2991C55.2279 18.3831 55.2675 18.4639 55.3309 18.6033C55.3974 18.4544 55.4449 18.3593 55.483 18.2611C56.6821 15.0882 57.8987 11.9216 59.0709 8.73922C59.6269 7.22802 60.6756 6.40905 62.2501 6.1952C62.8347 6.116 63.4128 5.99561 63.9942 5.89581C64.0908 5.87997 64.189 5.87363 64.3142 5.85938C64.3221 5.9766 64.3316 6.06689 64.3316 6.1556C64.3316 7.27395 64.3221 8.39073 64.3395 9.50908C64.3443 9.77046 64.2334 9.84174 64.0148 9.87342C63.7233 9.91619 63.435 9.99223 63.1436 10.0192C62.9329 10.0382 62.8457 10.1443 62.7713 10.3217C61.7416 12.8087 60.7057 15.2941 59.6728 17.7811C58.941 19.5442 58.206 21.3041 57.4821 23.0704C57.3981 23.2747 57.2777 23.3682 57.067 23.403C56.0025 23.5773 54.9396 23.7578 53.8783 23.9432C53.666 23.9796 53.552 23.9416 53.4601 23.7182C51.1854 18.2136 48.9027 12.7121 46.6216 7.21059C46.59 7.13614 46.5678 7.05694 46.525 6.93496L46.5234 6.93971Z" fill="#FF0A8C"/>
<path d="M89.8157 0.0220919V19.8753C90.2846 19.7977 90.7186 19.728 91.1511 19.6535C91.7863 19.5427 92.4247 19.4413 93.0551 19.3098C93.3038 19.2575 93.2928 19.3858 93.2928 19.5458C93.2928 20.5153 93.2928 21.4863 93.2912 22.4558C93.2912 22.7045 93.3624 23.0213 93.2389 23.1797C93.1201 23.3318 92.7922 23.3349 92.5514 23.3761C91.3618 23.5805 90.1753 23.8197 88.9777 23.9638C87.3097 24.1634 85.6417 22.8296 85.4009 21.1663C85.366 20.9208 85.3455 20.6705 85.3455 20.4234C85.3423 13.973 85.3454 7.52427 85.3359 1.07392C85.3359 0.807793 85.4056 0.711165 85.6702 0.671563C87.0008 0.468801 88.3283 0.245447 89.6573 0.0300123C89.6921 0.023676 89.7302 0.02526 89.8157 0.0205078V0.0220919Z" fill="#FF0A8C"/>
<path d="M34.3693 0V19.8817C35.5399 19.6774 36.6678 19.481 37.8241 19.2798C37.8321 19.3843 37.8432 19.4635 37.8432 19.5427C37.8432 20.688 37.8384 21.8349 37.8479 22.9802C37.8495 23.1877 37.7861 23.2653 37.577 23.3017C36.3684 23.5045 35.1597 23.7104 33.9558 23.9417C32.0581 24.3061 30.1446 22.9184 29.9402 21.0048C29.9101 20.7308 29.8927 20.4536 29.8927 20.178C29.8895 13.8116 29.8927 7.44515 29.8848 1.07876C29.8848 0.815799 29.9481 0.717586 30.2158 0.6764C31.5813 0.467302 32.9436 0.234443 34.3677 0.00158408L34.3693 0Z" fill="#FF0A8C"/>
<path d="M44.6702 6.25586V6.57743C44.6702 12.0282 44.6686 17.479 44.6749 22.9298C44.6749 23.1865 44.6005 23.2688 44.3439 23.3084C43.0972 23.5049 41.8537 23.7298 40.6102 23.9421C40.531 23.9563 40.4486 23.9516 40.3267 23.9579V23.6411C40.3267 18.1903 40.3282 12.7395 40.3203 7.28868C40.3203 7.02097 40.4185 6.95127 40.6577 6.91325C41.9139 6.71049 43.1669 6.49189 44.4215 6.2812C44.4912 6.27012 44.5625 6.26695 44.6718 6.25586H44.6702Z" fill="#FF0A8C"/>
<path d="M42.4965 4.50184C43.7178 4.50184 44.7079 3.51178 44.7079 2.29047C44.7079 1.06917 43.7178 0.0791016 42.4965 0.0791016C41.2752 0.0791016 40.2852 1.06917 40.2852 2.29047C40.2852 3.51178 41.2752 4.50184 42.4965 4.50184Z" fill="#FF0A8C"/>
<path d="M0 12.2151C0.0126726 10.3222 0.811047 9.10243 2.58046 8.41494C3.4612 8.07278 4.37205 7.79715 5.28606 7.5532C6.18106 7.31401 6.73866 6.82294 6.98419 5.9026C7.24714 4.90938 7.55604 3.91933 7.94889 2.97047C8.96903 0.505651 12.256 -0.286386 14.328 1.40065C15.0551 1.9931 15.4305 2.81207 15.7204 3.67222C15.996 4.4896 16.2526 5.31332 16.4871 6.14179C16.6819 6.83245 17.1207 7.23797 17.7939 7.44865C18.8457 7.77656 19.9182 8.06486 20.9336 8.48306C23.5362 9.55706 24.249 13.1434 22.2895 15.1172C21.6416 15.7698 20.8037 16.0771 19.9593 16.3591C19.2655 16.5904 18.5638 16.7979 17.8589 16.9927C17.1239 17.1971 16.6645 17.6422 16.4459 18.3788C16.1496 19.3767 15.8534 20.3779 15.4859 21.3505C14.7699 23.2435 13.2508 24.0878 11.0996 23.8787C9.20665 23.6949 8.22135 22.5116 7.66376 20.8436C7.38654 20.0151 7.12675 19.1787 6.88914 18.3376C6.68955 17.6358 6.24601 17.2224 5.55694 17.0117C4.5257 16.6949 3.4913 16.386 2.48383 16.0042C1.10727 15.4831 0.266125 14.4835 0.0506904 13.004C0.0126726 12.7442 0.0158408 12.4781 0.00158408 12.2136L0 12.2151Z" fill="#FF0A8C"/>
</svg>
