<svg xmlns="http://www.w3.org/2000/svg" width="200" height="200"><style>@keyframes load{0%{transform:rotate(0)}to{transform:rotate(-360deg)}}</style><g style="animation:load 1s linear infinite;transform-origin:center center"><linearGradient id="right" gradientUnits="userSpaceOnUse" x1="150" y1="20" x2="150" y2="180"><stop offset="0" stop-color="#fff"/><stop offset="1" stop-color="#fff" stop-opacity=".5"/></linearGradient><path d="M100 0v20c44.1 0 80 35.9 80 80s-35.9 80-80 80v20c55.2 0 100-44.8 100-100S155.2 0 100 0z" fill="url(#right)"/><linearGradient id="left" gradientUnits="userSpaceOnUse" x1="50" y1="0" x2="50" y2="180"><stop offset="0" stop-color="#fff" stop-opacity="0"/><stop offset="1" stop-color="#fff" stop-opacity=".5"/></linearGradient><path d="M20 100c0-44.1 35.9-80 80-80V0C44.8 0 0 44.8 0 100s44.8 100 100 100v-20c-44.1 0-80-35.9-80-80z" fill="url(#left)"/><circle cx="100" cy="10" r="10" fill="#fff"/></g></svg>